<svg xmlns="http://www.w3.org/2000/svg" xmlns:xlink="http://www.w3.org/1999/xlink" width="900" zoomAndPan="magnify" viewBox="0 0 675 262.499992" height="350" preserveAspectRatio="xMidYMid meet" version="1.0"><defs><g/><clipPath id="4ddd27447e"><path d="M 52.757812 57.976562 L 114.800781 57.976562 L 114.800781 120.019531 L 52.757812 120.019531 Z M 52.757812 57.976562 " clip-rule="nonzero"/></clipPath><clipPath id="ee56fca7d3"><path d="M 26.839844 84.386719 L 88.886719 84.386719 L 88.886719 146.433594 L 26.839844 146.433594 Z M 26.839844 84.386719 " clip-rule="nonzero"/></clipPath></defs><g clip-path="url(#4ddd27447e)"><path fill="#ffffff" d="M 52.757812 57.976562 L 114.800781 57.976562 L 114.800781 120.019531 L 52.757812 120.019531 Z M 52.757812 57.976562 " fill-opacity="1" fill-rule="nonzero"/></g><g clip-path="url(#ee56fca7d3)"><path fill="#ffffff" d="M 26.839844 84.386719 L 88.886719 84.386719 L 88.886719 146.433594 L 26.839844 146.433594 Z M 26.839844 84.386719 " fill-opacity="1" fill-rule="nonzero"/></g><g fill="#ffffff" fill-opacity="1"><g transform="translate(96.040822, 175.90716)"><g/></g></g><g fill="#ffffff" fill-opacity="1"><g transform="translate(116.951586, 175.90716)"><g><path d="M 39.609375 2.671875 C 60.046875 2.671875 72.484375 -7.3125 72.484375 -23.34375 C 72.484375 -37.171875 62.84375 -44.015625 49.953125 -47.15625 L 33.453125 -51.21875 C 27.0625 -52.84375 23.8125 -55.984375 23.8125 -60.515625 C 23.8125 -66.09375 28.6875 -70.5 37.515625 -70.5 C 46.578125 -70.5 53.3125 -65.75 54.359375 -57.375 L 71.09375 -57.375 C 70.046875 -73.640625 57.375 -84.5625 37.40625 -84.5625 C 16.140625 -84.5625 6.5 -71.90625 6.5 -58.65625 C 6.5 -47.046875 13.9375 -38.90625 26.828125 -35.65625 L 42.046875 -31.828125 C 49.953125 -29.859375 54.703125 -27.640625 54.703125 -21.71875 C 54.703125 -15.21875 48.90625 -11.390625 39.5 -11.390625 C 28.578125 -11.390625 21.84375 -16.5 21.375 -25.671875 L 4.53125 -25.671875 C 5 -7.78125 18.578125 2.671875 39.609375 2.671875 Z M 39.609375 2.671875 "/></g></g></g><g fill="#ffffff" fill-opacity="1"><g transform="translate(185.802313, 175.90716)"><g><path d="M 37.40625 -47.859375 L 37.40625 -59.9375 L 26.25 -59.59375 L 26.25 -78.40625 L 9.875 -78.40625 L 9.875 -59.703125 L 1.75 -59.9375 L 1.75 -47.859375 L 9.875 -48.203125 L 9.875 -16.84375 C 9.875 -4.765625 14.640625 0 26.71875 0 L 37.40625 0 L 37.40625 -13.125 L 31.9375 -13.125 C 27.875 -13.125 26.25 -14.75 26.25 -18.8125 L 26.25 -48.203125 Z M 37.40625 -47.859375 "/></g></g></g><g fill="#ffffff" fill-opacity="1"><g transform="translate(217.381352, 175.90716)"><g><path d="M 60.046875 0 C 58.3125 -3.015625 57.734375 -6.96875 57.734375 -12.546875 L 57.734375 -39.03125 C 57.734375 -53.78125 49.015625 -61.328125 31.828125 -61.328125 C 15.6875 -61.328125 7.4375 -55.171875 6.265625 -42.046875 L 21.25 -41.8125 C 22.0625 -47.390625 25.203125 -49.71875 31.9375 -49.71875 C 38.453125 -49.71875 42.046875 -47.625 42.046875 -43.203125 L 42.046875 -38.796875 L 21.140625 -34.609375 C 9.0625 -32.171875 2.90625 -26.015625 2.90625 -16.5 C 2.90625 -5.578125 11.03125 1.75 23.703125 1.75 C 31.59375 1.75 38.09375 -1.15625 42.171875 -6.046875 C 42.515625 -3.953125 42.984375 -2.09375 43.4375 0 Z M 28.34375 -10.34375 C 22.296875 -10.34375 18.9375 -13.234375 18.9375 -17.546875 C 18.9375 -21.484375 21.71875 -24.046875 26.71875 -25.09375 L 42.046875 -28.34375 L 42.046875 -23.921875 C 42.046875 -15.09375 36.125 -10.34375 28.34375 -10.34375 Z M 28.34375 -10.34375 "/></g></g></g><g fill="#ffffff" fill-opacity="1"><g transform="translate(273.924306, 175.90716)"><g><path d="M 36.46875 -30.3125 C 35.421875 -26.828125 34.15625 -22.65625 32.984375 -18.234375 C 31.703125 -22.65625 30.546875 -26.953125 29.390625 -30.4375 L 19.75 -59.9375 L 1.75 -59.9375 L 25.09375 3.015625 L 24.515625 4.640625 C 23.234375 8.25 20.90625 9.75 16.03125 9.75 L 8.125 9.75 L 8.125 23.703125 L 21.84375 23.703125 C 30.3125 23.703125 35.421875 21.140625 38.90625 10.6875 L 62.84375 -59.9375 L 45.421875 -59.9375 Z M 36.46875 -30.3125 "/></g></g></g><g fill="#ffffff" fill-opacity="1"><g transform="translate(330.351132, 175.90716)"><g><path d="M 40.53125 -61.453125 C 32.875 -61.453125 27.1875 -58.3125 23.234375 -51.8125 L 23 -59.9375 L 6.96875 -59.9375 L 6.96875 0 L 23.34375 0 L 23.34375 -32.0625 C 23.34375 -41 28.109375 -46.6875 35.078125 -46.6875 C 40.890625 -46.6875 43.796875 -42.75 43.796875 -36.46875 L 43.796875 0 L 60.171875 0 L 60.171875 -40.1875 C 60.171875 -53.203125 52.96875 -61.453125 40.53125 -61.453125 Z M 40.53125 -61.453125 "/></g></g></g><g fill="#ffffff" fill-opacity="1"><g transform="translate(389.332408, 175.90716)"><g><path d="M 64 -27.875 C 64 -48.90625 51 -61.453125 33.21875 -61.453125 C 14.875 -61.453125 3.71875 -47.734375 3.71875 -30.203125 C 3.71875 -11.84375 15.09375 1.96875 34.96875 1.96875 C 48.4375 1.96875 58.421875 -4.296875 62.484375 -17.3125 L 46.234375 -18.46875 C 44.25 -13.234375 40.3125 -10.6875 34.609375 -10.6875 C 26.484375 -10.6875 21.25 -16.03125 20.5625 -25.09375 L 64 -25.09375 Z M 33.796875 -49.484375 C 41.234375 -49.484375 46.109375 -44.609375 47.046875 -36.234375 L 20.4375 -36.234375 C 21.25 -44.484375 26.375 -49.484375 33.796875 -49.484375 Z M 33.796875 -49.484375 "/></g></g></g><g fill="#ffffff" fill-opacity="1"><g transform="translate(448.894213, 175.90716)"><g><path d="M 36.9375 -61.5625 C 30.3125 -61.5625 25.4375 -58.078125 22.765625 -51.6875 L 23 -59.9375 L 6.96875 -59.9375 L 6.96875 0 L 23.34375 0 L 23.34375 -29.15625 C 23.34375 -40.765625 28.21875 -46.46875 38.21875 -46.46875 C 39.375 -46.46875 40.421875 -46.34375 41.578125 -46.234375 L 41.578125 -61.09375 C 39.953125 -61.453125 38.328125 -61.5625 36.9375 -61.5625 Z M 36.9375 -61.5625 "/></g></g></g><g fill="#ffffff" fill-opacity="1"><g transform="translate(484.653265, 175.90716)"><g><path d="M 46.921875 -52.5 C 42.984375 -58.421875 37.046875 -61.453125 29.390625 -61.453125 C 14.640625 -61.453125 3.71875 -50.171875 3.71875 -31.125 C 3.71875 -12.546875 14.40625 0 29.390625 0 C 36.125 0 41.578125 -2.4375 45.65625 -7.3125 L 45.65625 0.921875 C 45.65625 8.484375 42.625 12.890625 33.109375 12.890625 C 26.015625 12.890625 21.953125 10.453125 21.03125 4.875 L 5.921875 4.875 C 7.078125 17.421875 16.265625 25.09375 33.453125 25.09375 C 51.453125 25.09375 62.03125 16.5 62.03125 0.703125 L 62.03125 -59.9375 L 47.515625 -59.9375 Z M 32.984375 -13.9375 C 25.09375 -13.9375 19.515625 -20.4375 19.515625 -31.125 C 19.515625 -41.703125 25.09375 -48.328125 32.984375 -48.328125 C 40.890625 -48.328125 46.46875 -41.578125 46.46875 -31.125 C 46.46875 -20.671875 40.890625 -13.9375 32.984375 -13.9375 Z M 32.984375 -13.9375 "/></g></g></g><g fill="#ffffff" fill-opacity="1"><g transform="translate(545.492318, 175.90716)"><g><path d="M 23.46875 -67.828125 L 23.46875 -82.703125 L 7.078125 -82.703125 L 7.078125 -67.828125 Z M 23.34375 0 L 23.34375 -59.9375 L 6.96875 -59.9375 L 6.96875 0 Z M 23.34375 0 "/></g></g></g><g fill="#ffffff" fill-opacity="1"><g transform="translate(567.66639, 175.90716)"><g><path d="M 64 -27.875 C 64 -48.90625 51 -61.453125 33.21875 -61.453125 C 14.875 -61.453125 3.71875 -47.734375 3.71875 -30.203125 C 3.71875 -11.84375 15.09375 1.96875 34.96875 1.96875 C 48.4375 1.96875 58.421875 -4.296875 62.484375 -17.3125 L 46.234375 -18.46875 C 44.25 -13.234375 40.3125 -10.6875 34.609375 -10.6875 C 26.484375 -10.6875 21.25 -16.03125 20.5625 -25.09375 L 64 -25.09375 Z M 33.796875 -49.484375 C 41.234375 -49.484375 46.109375 -44.609375 47.046875 -36.234375 L 20.4375 -36.234375 C 21.25 -44.484375 26.375 -49.484375 33.796875 -49.484375 Z M 33.796875 -49.484375 "/></g></g></g><g fill="#ffffff" fill-opacity="1"><g transform="translate(627.22822, 175.90716)"><g><path d="M 26.140625 0 L 26.140625 -17.421875 L 6.96875 -17.421875 L 6.96875 0 Z M 26.140625 0 "/></g></g></g></svg>
